<svg viewBox="0 0 200 200" xmlns="http://www.w3.org/2000/svg">
  <defs>
    <linearGradient id="logoGradient" x1="0%" y1="0%" x2="100%" y2="100%">
      <stop offset="0%" style="stop-color:#2b6cb0;stop-opacity:1" />
      <stop offset="100%" style="stop-color:#3182ce;stop-opacity:1" />
    </linearGradient>
    <linearGradient id="accentGradient" x1="0%" y1="0%" x2="100%" y2="100%">
      <stop offset="0%" style="stop-color:#38a169;stop-opacity:1" />
      <stop offset="100%" style="stop-color:#48bb78;stop-opacity:1" />
    </linearGradient>
  </defs>
  
  <!-- Background circle -->
  <circle cx="100" cy="100" r="95" fill="url(#logoGradient)" stroke="#ffffff" stroke-width="3"/>
  
  <!-- Central hub representing cohesion -->
  <circle cx="100" cy="100" r="25" fill="url(#accentGradient)"/>
  
  <!-- Connection nodes representing community -->
  <circle cx="100" cy="50" r="12" fill="#ffffff" opacity="0.9"/>
  <circle cx="150" cy="100" r="12" fill="#ffffff" opacity="0.9"/>
  <circle cx="100" cy="150" r="12" fill="#ffffff" opacity="0.9"/>
  <circle cx="50" cy="100" r="12" fill="#ffffff" opacity="0.9"/>
  
  <!-- Diagonal nodes for extended network -->
  <circle cx="135" cy="65" r="8" fill="#ffffff" opacity="0.8"/>
  <circle cx="135" cy="135" r="8" fill="#ffffff" opacity="0.8"/>
  <circle cx="65" cy="135" r="8" fill="#ffffff" opacity="0.8"/>
  <circle cx="65" cy="65" r="8" fill="#ffffff" opacity="0.8"/>
  
  <!-- Connection lines representing collaboration -->
  <g stroke="#ffffff" stroke-width="3" stroke-opacity="0.7" fill="none">
    <!-- Central connections -->
    <line x1="100" y1="75" x2="100" y2="62"/>
    <line x1="125" y1="100" x2="138" y2="100"/>
    <line x1="100" y1="125" x2="100" y2="138"/>
    <line x1="75" y1="100" x2="62" y2="100"/>
    
    <!-- Diagonal connections -->
    <line x1="118" y1="82" x2="127" y2="73"/>
    <line x1="118" y1="118" x2="127" y2="127"/>
    <line x1="82" y1="118" x2="73" y2="127"/>
    <line x1="82" y1="82" x2="73" y2="73"/>
  </g>
  
  <!-- Technology symbols - small dots representing digital elements -->
  <g fill="#ffffff" opacity="0.6">
    <circle cx="170" cy="80" r="3"/>
    <circle cx="30" cy="80" r="3"/>
    <circle cx="170" cy="120" r="3"/>
    <circle cx="30" cy="120" r="3"/>
    <circle cx="120" cy="30" r="3"/>
    <circle cx="80" cy="30" r="3"/>
    <circle cx="120" cy="170" r="3"/>
    <circle cx="80" cy="170" r="3"/>
  </g>
  
  <!-- Civic participation arrows -->
  <g stroke="#ffffff" stroke-width="2" fill="none" opacity="0.8">
    <path d="M 160 60 L 165 55 L 160 50" stroke-linecap="round"/>
    <path d="M 40 60 L 35 55 L 40 50" stroke-linecap="round"/>
    <path d="M 160 140 L 165 145 L 160 150" stroke-linecap="round"/>
    <path d="M 40 140 L 35 145 L 40 150" stroke-linecap="round"/>
  </g>
  
  <!-- Central symbol representing unity and action -->
  <g stroke="#ffffff" stroke-width="2" fill="none">
    <path d="M 90 90 L 100 100 L 110 90" stroke-linecap="round"/>
    <path d="M 90 110 L 100 100 L 110 110" stroke-linecap="round"/>
  </g>
</svg>
